<svg xmlns="http://www.w3.org/2000/svg" width="24.047" height="17.494" viewBox="0 0 24.047 17.494">
  <path id="Email" d="M1352.745,3270.5h-19.539a2.306,2.306,0,0,0-2.254,2.349v12.8a2.306,2.306,0,0,0,2.254,2.35h19.539a2.306,2.306,0,0,0,2.254-2.35v-12.8A2.306,2.306,0,0,0,1352.745,3270.5Zm-.369,1.566-9.4,7.065-9.4-7.065Zm.369,14.362h-19.539a.768.768,0,0,1-.751-.783v-12.489l10.081,7.578a.731.731,0,0,0,.879,0l10.081-7.578v12.489A.768.768,0,0,1,1352.745,3286.43Z" transform="translate(-1330.953 -3270.502)" fill="#1c1c1c"/>
</svg>
