<svg xmlns="http://www.w3.org/2000/svg" width="18.498" height="19.047" viewBox="0 0 18.498 19.047">
  <path id="Linkedin" d="M1300.425,3279.678v7.37h-3.965v-6.875c0-1.728-.573-2.906-2.009-2.906a2.194,2.194,0,0,0-2.034,1.563,3.138,3.138,0,0,0-.131,1.042v7.177h-3.966s.053-11.646,0-12.852h3.966v1.822l-.026.042h.026v-.042a3.9,3.9,0,0,1,3.574-2.124C1298.469,3273.893,1300.425,3275.73,1300.425,3279.678ZM1284.172,3268a2.221,2.221,0,0,0-.053,4.442h.027a2.221,2.221,0,1,0,.026-4.442Zm-2.009,19.047h3.964V3274.2h-3.964Z" transform="translate(-1281.927 -3268)" fill="#1c1c1c"/>
</svg>
