<svg xmlns="http://www.w3.org/2000/svg" width="14.001" height="17" viewBox="0 0 14.001 17">
  <path id="Shield-icon" d="M230.809,525.967c-6.98-2.469-6.871-8.319-6.791-12.59.009-.459.017-.893.017-1.312a.589.589,0,0,1,.583-.595,7.956,7.956,0,0,0,5.976-2.3.574.574,0,0,1,.813,0,7.956,7.956,0,0,0,5.976,2.3.59.59,0,0,1,.584.595c0,.419.008.853.016,1.312.08,4.271.189,10.121-6.791,12.59a.58.58,0,0,1-.382,0ZM225.2,512.648c0,.245-.007.494-.013.752-.08,4.294-.17,9.154,5.817,11.373,5.987-2.219,5.9-7.08,5.816-11.374q-.007-.386-.013-.751A8.893,8.893,0,0,1,231,510.4,8.9,8.9,0,0,1,225.2,512.648Zm4.585,6.918-1.614-1.646a.6.6,0,0,1,0-.841.576.576,0,0,1,.825,0l1.2,1.226,2.815-2.872a.575.575,0,0,1,.824,0,.6.6,0,0,1,0,.841l-3.227,3.292a.574.574,0,0,1-.824,0Z" transform="translate(-223.999 -509)" fill="#787878"/>
</svg>
