<svg xmlns="http://www.w3.org/2000/svg" width="18.498" height="15.24" viewBox="0 0 18.498 15.24">
  <path id="Twitter" d="M1250.5,3273.613a7.5,7.5,0,0,1-2.18.605,3.847,3.847,0,0,0,1.669-2.128,7.525,7.525,0,0,1-2.41.933,3.766,3.766,0,0,0-2.77-1.215,3.822,3.822,0,0,0-3.8,3.847,3.905,3.905,0,0,0,.1.877,10.726,10.726,0,0,1-7.822-4.02,3.885,3.885,0,0,0,1.174,5.136,3.737,3.737,0,0,1-1.719-.481c0,.016,0,.032,0,.049a3.836,3.836,0,0,0,3.044,3.772,3.738,3.738,0,0,1-1.714.066,3.805,3.805,0,0,0,3.545,2.672,7.576,7.576,0,0,1-5.619,1.593,10.637,10.637,0,0,0,5.818,1.729,10.8,10.8,0,0,0,10.8-10.946q0-.25-.011-.5A7.768,7.768,0,0,0,1250.5,3273.613Z" transform="translate(-1232.006 -3271.809)" fill="#1c1c1c"/>
</svg>
